<?xml version="1.0" encoding="UTF-8" standalone="no"?>
<!-- Created with Inkscape (http://www.inkscape.org/) -->

<svg
   width="144"
   height="144"
   viewBox="0 0 38.099999 38.100001"
   version="1.1"
   id="svg5"
   xmlns="http://www.w3.org/2000/svg"
   xmlns:svg="http://www.w3.org/2000/svg">
  <defs
     id="defs2" />
  <g
     id="layer1">
    <path
       id="path30820"
       style="color:#000000;fill:#ffffff;stroke-width:3.77953;-inkscape-stroke:none;fill-opacity:1"
       d="M 72.003906 27.003906 C 47.21035 27.003906 27.003906 47.21035 27.003906 72.003906 C 27.003906 72.640654 27.018502 73.273917 27.044922 73.904297 L 37.029297 73.478516 C 37.009207 72.989588 36.998047 72.497971 36.998047 72.003906 C 36.998047 52.614733 52.614733 36.998047 72.003906 36.998047 C 82.738761 36.998047 92.307128 41.789869 98.716797 49.353516 L 93.994141 52.080078 L 112.7168 62.890625 L 112.7168 41.269531 L 107.43359 44.320312 C 99.186151 33.791947 86.369009 27.003906 72.003906 27.003906 z M 116.95508 70.103516 L 106.9707 70.529297 C 106.99073 71.018224 107.00195 71.509839 107.00195 72.003906 C 107.00195 91.393079 91.385267 107.00977 71.996094 107.00977 C 61.261238 107.00977 51.692874 102.21794 45.283203 94.654297 L 50.005859 91.927734 L 31.283203 81.117188 L 31.283203 102.73828 L 36.566406 99.6875 C 44.81384 110.21587 57.63099 117.00391 71.996094 117.00391 C 96.789651 117.00391 116.99609 96.797463 116.99609 72.003906 C 116.99609 71.367158 116.98135 70.733895 116.95508 70.103516 z "
       transform="scale(0.26458333)" />
  </g>
</svg>
