<?xml version="1.0" encoding="UTF-8" standalone="no"?>
<!-- Created with Inkscape (http://www.inkscape.org/) -->

<svg
   width="144"
   height="144"
   viewBox="0 0 38.099999 38.100001"
   version="1.1"
   id="svg5"
   xmlns="http://www.w3.org/2000/svg"
   xmlns:svg="http://www.w3.org/2000/svg">
  <defs
     id="defs2" />
  <g
     id="layer1"
     transform="matrix(1.5999945,0,0,1.5999999,-11.429894,-11.431653)">
    <path
       id="path30820"
       style="color:#000000;fill:#d1d1d6;fill-opacity:1;stroke-width:3.77953;-inkscape-stroke:none"
       d="m 72.003906,27.003906 c -24.793556,0 -45,20.206444 -45,45 0,0.636748 0.0146,1.270011 0.04102,1.900391 l 9.984375,-0.425781 c -0.02009,-0.488928 -0.03125,-0.980545 -0.03125,-1.47461 0,-19.389173 15.616686,-35.005859 35.005859,-35.005859 10.734855,0 20.303222,4.791822 26.712891,12.355469 l -4.72266,2.726562 18.722659,10.810547 V 41.269531 l -5.28321,3.050781 C 99.186151,33.791947 86.369009,27.003906 72.003906,27.003906 Z m 44.951174,43.09961 -9.98438,0.425781 c 0.02,0.488927 0.0312,0.980542 0.0312,1.474609 0,19.389173 -15.616683,35.005864 -35.005856,35.005864 -10.734856,0 -20.30322,-4.79183 -26.712891,-12.355473 L 50.005859,91.927734 31.283203,81.117188 v 21.621092 l 5.283203,-3.05078 c 8.247434,10.52837 21.064584,17.31641 35.429688,17.31641 24.793557,0 44.999996,-20.206447 44.999996,-45.000004 0,-0.636748 -0.0147,-1.270011 -0.041,-1.90039 z"
       transform="scale(0.26458333)" />
  </g>
</svg>
